{
  "source": "C:\\Users\\Peter\\Desktop\\stuff\\MIUN\\quantitative_research\\video_compression\\videos\\UVG\\ReadySteadyGo_1920x1080_120fps_420_8bit_YUV.y4m",
  "output": "C:\\Users\\Peter\\Desktop\\stuff\\MIUN\\quantitative_research\\video_compression\\compressed_videos\\UVG\\av1\\2\\ReadySteadyGo_1920x1080_120fps_420_8bit_YUV_av1.mkv",
  "codec": "av1",
  "ok": "[yuv4mpegpipe @ 000001e8c7e55c40] Stream #0: not enough frames to estimate rate; consider increasing probesize\nInput #0, yuv4mpegpipe, from 'C:\\Users\\Peter\\Desktop\\stuff\\MIUN\\quantitative_research\\video_compression\\videos\\UVG\\ReadySteadyGo_1920x1080_120fps_420_8bit_YUV.y4m':\n  Duration: 00:00:05.00, start: 0.000000, bitrate: 2985989 kb/s\n  Stream #0:0: Video: rawvideo (I420 / 0x30323449), yuv420p(progressive), 1920x1080, 120 fps, 120 tbr, 120 tbn\n[out#0/matroska @ 000001e8c7e59940] Codec AVOption b:a (set bitrate (in bits/s)) has not been used for any stream. The most likely reason is either wrong type (e.g. a video option with no video streams) or that it is a private option of some decoder which was not actually used for any stream.\nStream mapping:\n  Stream #0:0 -> #0:0 (rawvideo (native) -> av1 (libsvtav1))\nPress [q] to stop, [?] for help\nSvt[info]: -------------------------------------------\nSvt[info]: SVT [version]:\tSVT-AV1 Encoder Lib v3.1.0-19-g6ecfe8ec\nSvt[info]: SVT [build]  :\tGCC 15.2.0\t 64 bit\nSvt[info]: LIB Build date: Aug 17 2025 11:37:13\nSvt[info]: -------------------------------------------\n[libsvtav1 @ 000001e8c7e5c280] Specified chroma sample location center is unsupported on the AV1 bit stream level. Usage of a container that allows passing this information - such as Matroska - is recommended.\nSvt[info]: Level of Parallelism: 5\nSvt[info]: Number of PPCS 93\nSvt[info]: [asm level on system : up to avx2]\nSvt[info]: [asm level selected : up to avx2]\nSvt[info]: -------------------------------------------\nSvt[info]: SVT [config]: main profile\ttier (auto)\tlevel (auto)\nSvt[info]: SVT [config]: width / height / fps numerator / fps denominator \t\t: 1920 / 1080 / 120 / 1\nSvt[info]: SVT [config]: bit-depth / color format \t\t\t\t\t: 8 / YUV420\nSvt[info]: SVT [config]: preset / tune / pred struct \t\t\t\t\t: 4 / PSNR / random access\nSvt[info]: SVT [config]: gop size / mini-gop size / key-frame type \t\t\t: 641 / 16 / key frame\nSvt[info]: SVT [config]: BRC mode / target bitrate (kbps)\t\t\t\t: VBR / 2000 \nSvt[info]: SVT [config]: AQ mode / Variance Boost \t\t\t\t\t: 2 / 0\nSvt[info]: SVT [config]: sharpness / luminance-based QP bias \t\t\t\t: 0 / 0\nSvt[info]: SVT [config]: QP scale compress strength \t\t\t\t\t: 0\nSvt[info]: -------------------------------------------\nOutput #0, matroska, to 'C:\\Users\\Peter\\Desktop\\stuff\\MIUN\\quantitative_research\\video_compression\\compressed_videos\\UVG\\av1\\2\\ReadySteadyGo_1920x1080_120fps_420_8bit_YUV_av1.mkv':\n  Metadata:\n    encoder         : Lavf62.3.100\n  Stream #0:0: Video: av1 (AV01 / 0x31305641), yuv420p(tv, progressive), 1920x1080, q=2-31, 2000 kb/s, 120 fps, 1k tbn\n    Metadata:\n      encoder         : Lavc62.11.100 libsvtav1\n    Side data:\n      cpb: bitrate max/min/avg: 0/0/2000000 buffer size: 2000000 vbv_delay: N/A\nframe=    0 fps=0.0 q=0.0 size=       0KiB time=N/A bitrate=N/A speed=N/A elapsed=0:00:05.13    \nframe=    0 fps=0.0 q=0.0 size=       0KiB time=N/A bitrate=N/A speed=N/A elapsed=0:00:05.94    \nframe=    0 fps=0.0 q=0.0 size=       0KiB time=N/A bitrate=N/A speed=N/A elapsed=0:00:06.51    \nframe=    0 fps=0.0 q=0.0 size=       0KiB time=N/A bitrate=N/A speed=N/A elapsed=0:00:07.09    \nframe=    0 fps=0.0 q=0.0 size=       0KiB time=N/A bitrate=N/A speed=N/A elapsed=0:00:07.67    \nframe=    0 fps=0.0 q=0.0 size=       0KiB time=N/A bitrate=N/A speed=N/A elapsed=0:00:08.23    \nframe=    0 fps=0.0 q=0.0 size=       0KiB time=N/A bitrate=N/A speed=N/A elapsed=0:00:08.77    \nframe=    0 fps=0.0 q=0.0 size=       0KiB time=N/A bitrate=N/A speed=N/A elapsed=0:00:09.32    \nframe=    0 fps=0.0 q=0.0 size=       0KiB time=N/A bitrate=N/A speed=N/A elapsed=0:00:09.89    \nframe=    0 fps=0.0 q=0.0 size=       0KiB time=N/A bitrate=N/A speed=N/A elapsed=0:00:10.47    \nframe=    0 fps=0.0 q=0.0 size=       0KiB time=N/A bitrate=N/A speed=N/A elapsed=0:00:11.03    \nframe=    0 fps=0.0 q=0.0 size=       0KiB time=N/A bitrate=N/A speed=N/A elapsed=0:00:11.58    \nframe=    0 fps=0.0 q=0.0 size=       0KiB time=N/A bitrate=N/A speed=N/A elapsed=0:00:12.15    \nframe=    0 fps=0.0 q=0.0 size=       0KiB time=N/A bitrate=N/A speed=N/A elapsed=0:00:12.71    \nframe=    0 fps=0.0 q=0.0 size=       0KiB time=N/A bitrate=N/A speed=N/A elapsed=0:00:13.24    \nframe=    0 fps=0.0 q=0.0 size=       0KiB time=N/A bitrate=N/A speed=N/A elapsed=0:00:13.79    \nframe=    0 fps=0.0 q=0.0 size=       0KiB time=N/A bitrate=N/A speed=N/A elapsed=0:00:14.35    \nframe=    0 fps=0.0 q=0.0 size=       0KiB time=N/A bitrate=N/A speed=N/A elapsed=0:00:14.94    \nframe=    0 fps=0.0 q=0.0 size=       0KiB time=N/A bitrate=N/A speed=N/A elapsed=0:00:15.51    \nframe=    0 fps=0.0 q=0.0 size=       0KiB time=N/A bitrate=N/A speed=N/A elapsed=0:00:16.07    \nframe=    0 fps=0.0 q=0.0 size=       0KiB time=N/A bitrate=N/A speed=N/A elapsed=0:00:16.67    \nframe=    0 fps=0.0 q=0.0 size=       0KiB time=N/A bitrate=N/A speed=N/A elapsed=0:00:17.26    \nframe=    0 fps=0.0 q=0.0 size=       0KiB time=N/A bitrate=N/A speed=N/A elapsed=0:00:17.87    \nframe=    0 fps=0.0 q=0.0 size=       0KiB time=N/A bitrate=N/A speed=N/A elapsed=0:00:18.45    \nframe=    0 fps=0.0 q=0.0 size=       0KiB time=N/A bitrate=N/A speed=N/A elapsed=0:00:19.02    \nframe=    0 fps=0.0 q=0.0 size=       0KiB time=N/A bitrate=N/A speed=N/A elapsed=0:00:19.60    \nframe=    0 fps=0.0 q=0.0 size=       0KiB time=N/A bitrate=N/A speed=N/A elapsed=0:00:20.19    \nframe=    0 fps=0.0 q=0.0 size=       0KiB time=N/A bitrate=N/A speed=N/A elapsed=0:00:20.74    \nframe=    0 fps=0.0 q=0.0 size=       0KiB time=N/A bitrate=N/A speed=N/A elapsed=0:00:21.30    \nframe=    0 fps=0.0 q=0.0 size=       0KiB time=N/A bitrate=N/A speed=N/A elapsed=0:00:21.85    \nframe=    0 fps=0.0 q=0.0 size=       0KiB time=N/A bitrate=N/A speed=N/A elapsed=0:00:22.41    \nframe=    0 fps=0.0 q=0.0 size=       0KiB time=N/A bitrate=N/A speed=N/A elapsed=0:00:22.98    \nframe=    0 fps=0.0 q=0.0 size=       0KiB time=N/A bitrate=N/A speed=N/A elapsed=0:00:23.57    \nframe=    0 fps=0.0 q=0.0 size=       0KiB time=N/A bitrate=N/A speed=N/A elapsed=0:00:24.16    \nframe=    0 fps=0.0 q=0.0 size=       0KiB time=N/A bitrate=N/A speed=N/A elapsed=0:00:24.74    \nframe=    0 fps=0.0 q=0.0 size=       0KiB time=N/A bitrate=N/A speed=N/A elapsed=0:00:25.32    \nframe=    0 fps=0.0 q=0.0 size=       0KiB time=N/A bitrate=N/A speed=N/A elapsed=0:00:25.88    \nframe=    0 fps=0.0 q=0.0 size=       0KiB time=N/A bitrate=N/A speed=N/A elapsed=0:00:26.45    \nframe=    0 fps=0.0 q=0.0 size=       0KiB time=N/A bitrate=N/A speed=N/A elapsed=0:00:27.01    \nframe=    0 fps=0.0 q=0.0 size=       0KiB time=N/A bitrate=N/A speed=N/A elapsed=0:00:27.57    \nframe=    0 fps=0.0 q=0.0 size=       0KiB time=N/A bitrate=N/A speed=N/A elapsed=0:00:28.11    \nframe=    0 fps=0.0 q=0.0 size=       0KiB time=N/A bitrate=N/A speed=N/A elapsed=0:00:28.65    \nframe=    0 fps=0.0 q=0.0 size=       0KiB time=N/A bitrate=N/A speed=N/A elapsed=0:00:29.22    \nframe=    0 fps=0.0 q=0.0 size=       0KiB time=N/A bitrate=N/A speed=N/A elapsed=0:00:29.77    \nframe=    0 fps=0.0 q=0.0 size=       0KiB time=N/A bitrate=N/A speed=N/A elapsed=0:00:30.35    \nframe=    0 fps=0.0 q=0.0 size=       0KiB time=N/A bitrate=N/A speed=N/A elapsed=0:00:30.94    \nframe=    0 fps=0.0 q=0.0 size=       0KiB time=N/A bitrate=N/A speed=N/A elapsed=0:00:31.50    \nframe=    0 fps=0.0 q=0.0 size=       0KiB time=N/A bitrate=N/A speed=N/A elapsed=0:00:32.07    \nframe=    0 fps=0.0 q=0.0 size=       0KiB time=N/A bitrate=N/A speed=N/A elapsed=0:00:32.63    \nframe=    0 fps=0.0 q=0.0 size=       0KiB time=N/A bitrate=N/A speed=N/A elapsed=0:00:33.19    \nframe=    0 fps=0.0 q=0.0 size=       0KiB time=N/A bitrate=N/A speed=N/A elapsed=0:00:33.74    \nframe=    0 fps=0.0 q=0.0 size=       0KiB time=N/A bitrate=N/A speed=N/A elapsed=0:00:34.29    \nframe=    1 fps=0.0 q=29.0 size=       1KiB time=N/A bitrate=N/A speed=N/A elapsed=0:00:34.84    \nframe=    1 fps=0.0 q=29.0 size=       1KiB time=00:00:00.00 bitrate=N/A speed=   0x elapsed=0:00:35.39    \nframe=    1 fps=0.0 q=29.0 size=       1KiB time=00:00:00.00 bitrate=N/A speed=   0x elapsed=0:00:35.97    \nframe=    1 fps=0.0 q=29.0 size=       1KiB time=00:00:00.00 bitrate=N/A speed=   0x elapsed=0:00:36.53    \nframe=    1 fps=0.0 q=29.0 size=       1KiB time=00:00:00.00 bitrate=N/A speed=   0x elapsed=0:00:37.09    \nframe=    1 fps=0.0 q=29.0 size=       1KiB time=00:00:00.00 bitrate=N/A speed=   0x elapsed=0:00:37.65    \nframe=    1 fps=0.0 q=29.0 size=       1KiB time=00:00:00.00 bitrate=N/A speed=   0x elapsed=0:00:38.18    \nframe=    1 fps=0.0 q=29.0 size=       1KiB time=00:00:00.00 bitrate=N/A speed=   0x elapsed=0:00:38.74    \nframe=    1 fps=0.0 q=29.0 size=       1KiB time=00:00:00.00 bitrate=N/A speed=   0x elapsed=0:00:39.29    \nframe=    1 fps=0.0 q=29.0 size=       1KiB time=00:00:00.00 bitrate=N/A speed=   0x elapsed=0:00:39.83    \nframe=    1 fps=0.0 q=29.0 size=       1KiB time=00:00:00.00 bitrate=N/A speed=   0x elapsed=0:00:40.41    \nframe=    1 fps=0.0 q=29.0 size=       1KiB time=00:00:00.00 bitrate=N/A speed=   0x elapsed=0:00:41.02    \nframe=    1 fps=0.0 q=29.0 size=       1KiB time=00:00:00.00 bitrate=N/A speed=   0x elapsed=0:00:41.60    \nframe=    1 fps=0.0 q=29.0 size=       1KiB time=00:00:00.00 bitrate=N/A speed=   0x elapsed=0:00:42.17    \nframe=    2 fps=0.0 q=57.0 size=       1KiB time=00:00:00.00 bitrate= 537.6kbits/s speed=0.000195x elapsed=0:00:42.76    \nframe=    3 fps=0.1 q=54.0 size=       1KiB time=00:00:00.01 bitrate= 268.8kbits/s speed=0.000384x elapsed=0:00:43.35    \nframe=    3 fps=0.1 q=54.0 size=       1KiB time=00:00:00.01 bitrate= 268.8kbits/s speed=0.000379x elapsed=0:00:43.92    \nframe=    5 fps=0.1 q=53.0 size=       1KiB time=00:00:00.02 bitrate= 179.2kbits/s speed=0.000562x elapsed=0:00:44.47    \nframe=    6 fps=0.1 q=54.0 size=       1KiB time=00:00:00.04 bitrate= 107.5kbits/s speed=0.000925x elapsed=0:00:45.03    \nframe=    7 fps=0.2 q=54.0 size=       1KiB time=00:00:00.05 bitrate=  89.6kbits/s speed=0.0011x elapsed=0:00:45.58    \nframe=    8 fps=0.2 q=54.0 size=       1KiB time=00:00:00.05 bitrate=  89.6kbits/s speed=0.00108x elapsed=0:00:46.18    \nframe=    9 fps=0.2 q=50.0 size=       1KiB time=00:00:00.05 bitrate=  76.8kbits/s speed=0.00125x elapsed=0:00:46.78    \nframe=   10 fps=0.2 q=53.0 size=       1KiB time=00:00:00.07 bitrate=  59.7kbits/s speed=0.00158x elapsed=0:00:47.36    \nframe=   11 fps=0.2 q=54.0 size=       1KiB time=00:00:00.08 bitrate=  53.8kbits/s speed=0.00174x elapsed=0:00:47.92    \nframe=   12 fps=0.2 q=52.0 size=       1KiB time=00:00:00.09 bitrate=  48.9kbits/s speed=0.00189x elapsed=0:00:48.52    \nframe=   13 fps=0.3 q=52.0 size=       1KiB time=00:00:00.09 bitrate=  48.9kbits/s speed=0.00187x elapsed=0:00:49.11    \nframe=   13 fps=0.3 q=52.0 size=       1KiB time=00:00:00.10 bitrate=  44.8kbits/s speed=0.00201x elapsed=0:00:49.69    \nframe=   14 fps=0.3 q=50.0 size=       1KiB time=00:00:00.10 bitrate=  41.4kbits/s speed=0.00216x elapsed=0:00:50.27    \nframe=   15 fps=0.3 q=52.0 size=       1KiB time=00:00:00.11 bitrate=  38.4kbits/s speed=0.00229x elapsed=0:00:50.86    \nframe=   16 fps=0.3 q=50.0 size=       1KiB time=00:00:00.12 bitrate=  35.8kbits/s speed=0.00243x elapsed=0:00:51.45    \nframe=   17 fps=0.3 q=38.0 size=       1KiB time=00:00:00.13 bitrate=  33.6kbits/s speed=0.00256x elapsed=0:00:52.00    \nframe=   18 fps=0.3 q=50.0 size=       1KiB time=00:00:00.14 bitrate=  31.6kbits/s speed=0.0027x elapsed=0:00:52.54    \nframe=   19 fps=0.4 q=53.0 size=       1KiB time=00:00:00.15 bitrate=  29.9kbits/s speed=0.00283x elapsed=0:00:53.08    \nframe=   19 fps=0.4 q=53.0 size=       1KiB time=00:00:00.15 bitrate=  29.9kbits/s speed=0.0028x elapsed=0:00:53.65    \nframe=   19 fps=0.4 q=53.0 size=       1KiB time=00:00:00.15 bitrate=  29.9kbits/s speed=0.00277x elapsed=0:00:54.24    \nframe=   20 fps=0.4 q=50.0 size=       1KiB time=00:00:00.15 bitrate=  28.3kbits/s speed=0.00289x elapsed=0:00:54.81    \nframe=   21 fps=0.4 q=51.0 size=       1KiB time=00:00:00.16 bitrate=  26.9kbits/s speed=0.00301x elapsed=0:00:55.39    \nframe=   21 fps=0.4 q=51.0 size=       1KiB time=00:00:00.16 bitrate=  26.9kbits/s speed=0.00298x elapsed=0:00:55.98    \nframe=   22 fps=0.4 q=50.0 size=       1KiB time=00:00:00.17 bitrate=  25.6kbits/s speed=0.00309x elapsed=0:00:56.59    \nframe=   22 fps=0.4 q=50.0 size=       1KiB time=00:00:00.17 bitrate=  25.6kbits/s speed=0.00306x elapsed=0:00:57.15    \nframe=   23 fps=0.4 q=53.0 size=       1KiB time=00:00:00.18 bitrate=  24.4kbits/s speed=0.00318x elapsed=0:00:57.70    \nframe=   24 fps=0.4 q=50.0 size=       1KiB time=00:00:00.19 bitrate=  23.4kbits/s speed=0.00329x elapsed=0:00:58.25    \nframe=   24 fps=0.4 q=50.0 size=       1KiB time=00:00:00.19 bitrate=  23.4kbits/s speed=0.00326x elapsed=0:00:58.80    \nframe=   25 fps=0.4 q=50.0 size=       1KiB time=00:00:00.20 bitrate=  22.4kbits/s speed=0.00337x elapsed=0:00:59.35    \nframe=   27 fps=0.5 q=52.0 size=       1KiB time=00:00:00.21 bitrate=  20.7kbits/s speed=0.00362x elapsed=0:00:59.91    \nframe=   28 fps=0.5 q=51.0 size=       1KiB time=00:00:00.22 bitrate=  19.9kbits/s speed=0.00372x elapsed=0:01:00.49    \nframe=   28 fps=0.5 q=51.0 size=       1KiB time=00:00:00.22 bitrate=  19.9kbits/s speed=0.00368x elapsed=0:01:01.08    \nframe=   29 fps=0.5 q=49.0 size=       1KiB time=00:00:00.23 bitrate=  19.2kbits/s speed=0.00378x elapsed=0:01:01.66    \nframe=   30 fps=0.5 q=51.0 size=       1KiB time=00:00:00.24 bitrate=  18.5kbits/s speed=0.00388x elapsed=0:01:02.23    \nframe=   31 fps=0.5 q=52.0 size=       1KiB time=00:00:00.25 bitrate=  17.9kbits/s speed=0.00398x elapsed=0:01:02.79    \nframe=   32 fps=0.5 q=52.0 size=       1KiB time=00:00:00.25 bitrate=  17.3kbits/s speed=0.00408x elapsed=0:01:03.34    \nframe=   32 fps=0.5 q=52.0 size=       1KiB time=00:00:00.25 bitrate=  17.3kbits/s speed=0.00404x elapsed=0:01:03.89    \nframe=   34 fps=0.5 q=53.0 size=       1KiB time=00:00:00.27 bitrate=  16.3kbits/s speed=0.00427x elapsed=0:01:04.41    \nframe=   35 fps=0.5 q=53.0 size=       1KiB time=00:00:00.28 bitrate=  15.8kbits/s speed=0.00436x elapsed=0:01:04.93    \nframe=   35 fps=0.5 q=53.0 size=       1KiB time=00:00:00.28 bitrate=  15.8kbits/s speed=0.00433x elapsed=0:01:05.44    \nframe=   36 fps=0.5 q=53.0 size=       1KiB time=00:00:00.29 bitrate=  15.4kbits/s speed=0.00442x elapsed=0:01:06.00    \nframe=   38 fps=0.6 q=53.0 size=       1KiB time=00:00:00.30 bitrate=  14.5kbits/s speed=0.00463x elapsed=0:01:06.54    \nframe=   38 fps=0.6 q=53.0 size=       1KiB time=00:00:00.30 bitrate=  14.5kbits/s speed=0.0046x elapsed=0:01:07.08    \nframe=   39 fps=0.6 q=53.0 size=       1KiB time=00:00:00.31 bitrate=  14.1kbits/s speed=0.00468x elapsed=0:01:07.62    \nframe=   39 fps=0.6 q=53.0 size=       1KiB time=00:00:00.31 bitrate=  14.1kbits/s speed=0.00465x elapsed=0:01:08.16    \nframe=   40 fps=0.6 q=53.0 size=       1KiB time=00:00:00.32 bitrate=  13.8kbits/s speed=0.00473x elapsed=0:01:08.70    \nframe=   40 fps=0.6 q=53.0 size=       1KiB time=00:00:00.32 bitrate=  13.8kbits/s speed=0.00469x elapsed=0:01:09.28    \nframe=   40 fps=0.6 q=53.0 size=       1KiB time=00:00:00.32 bitrate=  13.8kbits/s speed=0.00465x elapsed=0:01:09.88    \nframe=   41 fps=0.6 q=48.0 size=       1KiB time=00:00:00.33 bitrate=  13.4kbits/s speed=0.00473x elapsed=0:01:10.45    \nframe=   42 fps=0.6 q=53.0 size=       1KiB time=00:00:00.34 bitrate=  13.1kbits/s speed=0.00481x elapsed=0:01:11.05    \nframe=   43 fps=0.6 q=52.0 size=       1KiB time=00:00:00.34 bitrate=  13.1kbits/s speed=0.00477x elapsed=0:01:11.65    \nframe=   43 fps=0.6 q=52.0 size=       1KiB time=00:00:00.35 bitrate=  12.8kbits/s speed=0.00484x elapsed=0:01:12.26    \nframe=   44 fps=0.6 q=52.0 size=       1KiB time=00:00:00.35 bitrate=  12.5kbits/s speed=0.00492x elapsed=0:01:12.85    \nframe=   44 fps=0.6 q=52.0 size=       1KiB time=00:00:00.35 bitrate=  12.5kbits/s speed=0.00488x elapsed=0:01:13.45    \nframe=   46 fps=0.6 q=54.0 size=       1KiB time=00:00:00.37 bitrate=  11.9kbits/s speed=0.00506x elapsed=0:01:14.11    \nframe=   47 fps=0.6 q=53.0 size=       1KiB time=00:00:00.38 bitrate=  11.7kbits/s speed=0.00514x elapsed=0:01:14.64    \nframe=   48 fps=0.6 q=54.0 size=       1KiB time=00:00:00.39 bitrate=  11.4kbits/s speed=0.00521x elapsed=0:01:15.16    \nframe=   51 fps=0.7 q=53.0 size=       1KiB time=00:00:00.41 bitrate=  10.8kbits/s speed=0.0055x elapsed=0:01:15.70    \nframe=   51 fps=0.7 q=53.0 size=       1KiB time=00:00:00.41 bitrate=  10.8kbits/s speed=0.00546x elapsed=0:01:16.28    \nframe=   52 fps=0.7 q=54.0 size=       1KiB time=00:00:00.42 bitrate=  10.5kbits/s speed=0.00553x elapsed=0:01:16.81    \nframe=   53 fps=0.7 q=52.0 size=       1KiB time=00:00:00.43 bitrate=  10.3kbits/s speed=0.0056x elapsed=0:01:17.33    \nframe=   54 fps=0.7 q=53.0 size=       1KiB time=00:00:00.44 bitrate=  10.1kbits/s speed=0.00567x elapsed=0:01:17.90    \nframe=   55 fps=0.7 q=51.0 size=       1KiB time=00:00:00.45 bitrate=  10.0kbits/s speed=0.00574x elapsed=0:01:18.42    \nframe=   57 fps=0.7 q=49.0 size=       1KiB time=00:00:00.45 bitrate=  10.0kbits/s speed=0.0057x elapsed=0:01:18.97    \nframe=   58 fps=0.7 q=54.0 size=       1KiB time=00:00:00.47 bitrate=   9.4kbits/s speed=0.00597x elapsed=0:01:19.59    \nframe=   60 fps=0.7 q=54.0 size=       1KiB time=00:00:00.48 bitrate=   9.3kbits/s speed=0.00603x elapsed=0:01:20.11    \nframe=   61 fps=0.8 q=50.0 size=       1KiB time=00:00:00.50 bitrate=   9.0kbits/s speed=0.0062x elapsed=0:01:20.69    \nframe=   63 fps=0.8 q=53.0 size=       1KiB time=00:00:00.51 bitrate=   8.7kbits/s speed=0.00636x elapsed=0:01:21.23    \nframe=   64 fps=0.8 q=54.0 size=       1KiB time=00:00:00.52 bitrate=   8.5kbits/s speed=0.00642x elapsed=0:01:21.80    \nframe=   66 fps=0.8 q=55.0 size=       1KiB time=00:00:00.54 bitrate=   8.3kbits/s speed=0.00657x elapsed=0:01:22.38    \nframe=   67 fps=0.8 q=54.0 size=       1KiB time=00:00:00.55 bitrate=   8.1kbits/s speed=0.00663x elapsed=0:01:22.92    \nframe=   69 fps=0.8 q=52.0 size=       1KiB time=00:00:00.56 bitrate=   7.9kbits/s speed=0.00678x elapsed=0:01:23.59    \nframe=   70 fps=0.8 q=54.0 size=       1KiB time=00:00:00.57 bitrate=   7.8kbits/s speed=0.00683x elapsed=0:01:24.19    \nframe=   70 fps=0.8 q=54.0 size=       1KiB time=00:00:00.57 bitrate=   7.8kbits/s speed=0.00679x elapsed=0:01:24.72    \nframe=   71 fps=0.8 q=51.0 size=       1KiB time=00:00:00.58 bitrate=   7.7kbits/s speed=0.00684x elapsed=0:01:25.25    \nframe=   72 fps=0.8 q=54.0 size=       1KiB time=00:00:00.59 bitrate=   7.6kbits/s speed=0.0069x elapsed=0:01:25.78    \nframe=   73 fps=0.8 q=48.0 size=       1KiB time=00:00:00.60 bitrate=   7.5kbits/s speed=0.00694x elapsed=0:01:26.39    \nframe=   74 fps=0.9 q=56.0 size=       1KiB time=00:00:00.60 bitrate=   7.4kbits/s speed=0.007x elapsed=0:01:26.91    \nframe=   76 fps=0.9 q=56.0 size=       1KiB time=00:00:00.62 bitrate=   7.2kbits/s speed=0.00715x elapsed=0:01:27.45    \nframe=   79 fps=0.9 q=54.0 size=       1KiB time=00:00:00.65 bitrate=   6.9kbits/s speed=0.00739x elapsed=0:01:27.98    \nframe=   79 fps=0.9 q=54.0 size=       1KiB time=00:00:00.65 bitrate=   6.9kbits/s speed=0.00734x elapsed=0:01:28.50    \nframe=   82 fps=0.9 q=57.0 size=       1KiB time=00:00:00.66 bitrate=   6.7kbits/s speed=0.00749x elapsed=0:01:29.01    \nframe=   82 fps=0.9 q=57.0 size=       1KiB time=00:00:00.67 bitrate=   6.6kbits/s speed=0.00754x elapsed=0:01:29.54    \nframe=   84 fps=0.9 q=57.0 size=       1KiB time=00:00:00.69 bitrate=   6.5kbits/s speed=0.00768x elapsed=0:01:30.06    \nframe=   85 fps=0.9 q=53.0 size=       1KiB time=00:00:00.70 bitrate=   6.4kbits/s speed=0.00773x elapsed=0:01:30.59    \nframe=   86 fps=0.9 q=57.0 size=       1KiB time=00:00:00.70 bitrate=   6.3kbits/s speed=0.00777x elapsed=0:01:31.13    \nframe=   86 fps=0.9 q=57.0 size=       1KiB time=00:00:00.70 bitrate=   6.3kbits/s speed=0.00773x elapsed=0:01:31.66    \nframe=   87 fps=0.9 q=56.0 size=       1KiB time=00:00:00.71 bitrate=   6.3kbits/s speed=0.00777x elapsed=0:01:32.25    \nframe=   87 fps=0.9 q=56.0 size=       1KiB time=00:00:00.71 bitrate=   6.3kbits/s speed=0.00772x elapsed=0:01:32.80    \nframe=   90 fps=1.0 q=57.0 size=       1KiB time=00:00:00.72 bitrate=   6.2kbits/s speed=0.00777x elapsed=0:01:33.34    \nframe=   91 fps=1.0 q=55.0 size=       1KiB time=00:00:00.75 bitrate=   6.0kbits/s speed=0.00798x elapsed=0:01:33.98    \nframe=   91 fps=1.0 q=55.0 size=       1KiB time=00:00:00.75 bitrate=   6.0kbits/s speed=0.00794x elapsed=0:01:34.48    \nframe=   92 fps=1.0 q=57.0 size=       1KiB time=00:00:00.75 bitrate=   5.9kbits/s speed=0.00798x elapsed=0:01:35.00    \nframe=   93 fps=1.0 q=51.0 size=       1KiB time=00:00:00.76 bitrate=   5.8kbits/s speed=0.00803x elapsed=0:01:35.51    \nframe=   95 fps=1.0 q=53.0 size=       1KiB time=00:00:00.78 bitrate=   5.7kbits/s speed=0.00816x elapsed=0:01:36.04    \nframe=   95 fps=1.0 q=53.0 size=       1KiB time=00:00:00.78 bitrate=   5.7kbits/s speed=0.00811x elapsed=0:01:36.55    \nframe=   98 fps=1.0 q=56.0 size=       1KiB time=00:00:00.80 bitrate=   5.5kbits/s speed=0.00833x elapsed=0:01:37.07    \nframe=   99 fps=1.0 q=55.0 size=       1KiB time=00:00:00.81 bitrate=   5.5kbits/s speed=0.00837x elapsed=0:01:37.58    \nframe=   99 fps=1.0 q=55.0 size=       1KiB time=00:00:00.81 bitrate=   5.5kbits/s speed=0.00833x elapsed=0:01:38.09    \nframe=  100 fps=1.0 q=51.0 size=       1KiB time=00:00:00.82 bitrate=   5.4kbits/s speed=0.00837x elapsed=0:01:38.61    \nframe=  100 fps=1.0 q=51.0 size=       1KiB time=00:00:00.82 bitrate=   5.4kbits/s speed=0.00832x elapsed=0:01:39.13    \nframe=  101 fps=1.0 q=53.0 size=       1KiB time=00:00:00.83 bitrate=   5.4kbits/s speed=0.00836x elapsed=0:01:39.65    \nframe=  102 fps=1.0 q=54.0 size=       1KiB time=00:00:00.84 bitrate=   5.3kbits/s speed=0.0084x elapsed=0:01:40.16    \nframe=  103 fps=1.0 q=51.0 size=       1KiB time=00:00:00.85 bitrate=   5.3kbits/s speed=0.00844x elapsed=0:01:40.67    \nframe=  105 fps=1.0 q=48.0 size=       1KiB time=00:00:00.86 bitrate=   5.2kbits/s speed=0.00856x elapsed=0:01:41.19    \nframe=  106 fps=1.0 q=56.0 size=       1KiB time=00:00:00.87 bitrate=   5.1kbits/s speed=0.0086x elapsed=0:01:41.71    \nframe=  107 fps=1.0 q=54.0 size=       1KiB time=00:00:00.88 bitrate=   5.1kbits/s speed=0.00864x elapsed=0:01:42.22    \nframe=  108 fps=1.1 q=54.0 size=       1KiB time=00:00:00.89 bitrate=   5.0kbits/s speed=0.00868x elapsed=0:01:42.74    \nframe=  110 fps=1.1 q=56.0 size=       1KiB time=00:00:00.90 bitrate=   4.9kbits/s speed=0.0088x elapsed=0:01:43.25    \nframe=  111 fps=1.1 q=54.0 size=       1KiB time=00:00:00.91 bitrate=   4.9kbits/s speed=0.00883x elapsed=0:01:43.77    \nframe=  113 fps=1.1 q=37.0 size=       1KiB time=00:00:00.93 bitrate=   4.8kbits/s speed=0.00895x elapsed=0:01:44.29    \nframe=  114 fps=1.1 q=58.0 size=       1KiB time=00:00:00.94 bitrate=   4.8kbits/s speed=0.00899x elapsed=0:01:44.80    \nframe=  115 fps=1.1 q=56.0 size=       1KiB time=00:00:00.95 bitrate=   4.7kbits/s speed=0.00902x elapsed=0:01:45.31    \nframe=  116 fps=1.1 q=58.0 size=       1KiB time=00:00:00.95 bitrate=   4.7kbits/s speed=0.00905x elapsed=0:01:45.84    \nframe=  117 fps=1.1 q=54.0 size=       1KiB time=00:00:00.96 bitrate=   4.6kbits/s speed=0.00909x elapsed=0:01:46.35    \nframe=  118 fps=1.1 q=58.0 size=       1KiB time=00:00:00.97 bitrate=   4.6kbits/s speed=0.00912x elapsed=0:01:46.87    \nframe=  118 fps=1.1 q=58.0 size=       1KiB time=00:00:00.97 bitrate=   4.6kbits/s speed=0.00908x elapsed=0:01:47.39    \nframe=  119 fps=1.1 q=52.0 size=       1KiB time=00:00:00.98 bitrate=   4.6kbits/s speed=0.00911x elapsed=0:01:47.90    \nframe=  120 fps=1.1 q=58.0 size=       1KiB time=00:00:00.99 bitrate=   4.5kbits/s speed=0.00915x elapsed=0:01:48.42    \nframe=  122 fps=1.1 q=58.0 size=       1KiB time=00:00:01.00 bitrate=   4.4kbits/s speed=0.00926x elapsed=0:01:48.94    \nframe=  123 fps=1.1 q=55.0 size=       1KiB time=00:00:01.01 bitrate=   4.4kbits/s speed=0.00929x elapsed=0:01:49.46    \nframe=  126 fps=1.1 q=58.0 size=       1KiB time=00:00:01.04 bitrate=   4.3kbits/s speed=0.00947x elapsed=0:01:49.98    \nframe=  129 fps=1.2 q=36.0 size=       1KiB time=00:00:01.06 bitrate=   4.2kbits/s speed=0.00965x elapsed=0:01:50.49    \nframe=  131 fps=1.2 q=56.0 size=       1KiB time=00:00:01.08 bitrate=   4.1kbits/s speed=0.00976x elapsed=0:01:51.00    \nframe=  131 fps=1.2 q=56.0 size=       1KiB time=00:00:01.08 bitrate=   4.1kbits/s speed=0.00971x elapsed=0:01:51.52    \nframe=  132 fps=1.2 q=58.0 size=       1KiB time=00:00:01.09 bitrate=   4.1kbits/s speed=0.00974x elapsed=0:01:52.03    \nframe=  134 fps=1.2 q=58.0 size=       1KiB time=00:00:01.10 bitrate=   4.0kbits/s speed=0.00985x elapsed=0:01:52.55    \nframe=  135 fps=1.2 q=53.0 size=       1KiB time=00:00:01.11 bitrate=   4.0kbits/s speed=0.00988x elapsed=0:01:53.07    \nframe=  136 fps=1.2 q=58.0 size=       1KiB time=00:00:01.12 bitrate=   4.0kbits/s speed=0.0099x elapsed=0:01:53.58    \nframe=  138 fps=1.2 q=59.0 size=       1KiB time=00:00:01.14 bitrate=   3.9kbits/s speed=0.01x elapsed=0:01:54.09    \nframe=  138 fps=1.2 q=59.0 size=       1KiB time=00:00:01.14 bitrate=   3.9kbits/s speed=0.00996x elapsed=0:01:54.61    \nframe=  139 fps=1.2 q=55.0 size=       1KiB time=00:00:01.15 bitrate=   3.9kbits/s speed=0.00999x elapsed=0:01:55.13    \nframe=  140 fps=1.2 q=59.0 size=       1KiB time=00:00:01.15 bitrate=   3.9kbits/s speed=0.01x elapsed=0:01:55.64    \nframe=  142 fps=1.2 q=59.0 size=       1KiB time=00:00:01.17 bitrate=   3.8kbits/s speed=0.0101x elapsed=0:01:56.17    \nframe=  143 fps=1.2 q=55.0 size=       1KiB time=00:00:01.18 bitrate=   3.8kbits/s speed=0.0101x elapsed=0:01:56.68    \nframe=  146 fps=1.2 q=59.0 size=       1KiB time=00:00:01.20 bitrate=   3.7kbits/s speed=0.0103x elapsed=0:01:57.19    \nframe=  147 fps=1.2 q=57.0 size=       1KiB time=00:00:01.21 bitrate=   3.7kbits/s speed=0.0103x elapsed=0:01:57.71    \nframe=  148 fps=1.3 q=59.0 size=       1KiB time=00:00:01.22 bitrate=   3.7kbits/s speed=0.0104x elapsed=0:01:58.23    \nframe=  150 fps=1.3 q=59.0 size=       1KiB time=00:00:01.24 bitrate=   3.6kbits/s speed=0.0105x elapsed=0:01:58.74    \nframe=  151 fps=1.3 q=53.0 size=       1KiB time=00:00:01.25 bitrate=   3.6kbits/s speed=0.0105x elapsed=0:01:59.26    \nframe=  151 fps=1.3 q=53.0 size=       1KiB time=00:00:01.25 bitrate=   3.6kbits/s speed=0.0104x elapsed=0:01:59.80    \nframe=  153 fps=1.3 q=51.0 size=       1KiB time=00:00:01.25 bitrate=   3.6kbits/s speed=0.0105x elapsed=0:02:00.33    \nframe=  155 fps=1.3 q=56.0 size=       1KiB time=00:00:01.28 bitrate=   3.5kbits/s speed=0.0106x elapsed=0:02:00.88    \nframe=  155 fps=1.3 q=56.0 size=       1KiB time=00:00:01.28 bitrate=   3.5kbits/s speed=0.0106x elapsed=0:02:01.41    \nframe=  157 fps=1.3 q=52.0 size=       1KiB time=00:00:01.30 bitrate=   3.4kbits/s speed=0.0107x elapsed=0:02:01.92    \nframe=  160 fps=1.3 q=60.0 size=       1KiB time=00:00:01.32 bitrate=   3.4kbits/s speed=0.0108x elapsed=0:02:02.44    \nframe=  163 fps=1.3 q=58.0 size=       1KiB time=00:00:01.35 bitrate=   3.3kbits/s speed=0.011x elapsed=0:02:02.96    \nframe=  164 fps=1.3 q=60.0 size=       1KiB time=00:00:01.35 bitrate=   3.3kbits/s speed=0.011x elapsed=0:02:03.47    \nframe=  166 fps=1.3 q=60.0 size=       1KiB time=00:00:01.37 bitrate=   3.3kbits/s speed=0.0111x elapsed=0:02:03.99    \nframe=  167 fps=1.3 q=55.0 size=       1KiB time=00:00:01.38 bitrate=   3.2kbits/s speed=0.0111x elapsed=0:02:04.50    \nframe=  169 fps=1.4 q=51.0 size=       1KiB time=00:00:01.40 bitrate=   3.2kbits/s speed=0.0112x elapsed=0:02:05.02    \nframe=  171 fps=1.4 q=57.0 size=       1KiB time=00:00:01.41 bitrate=   3.2kbits/s speed=0.0113x elapsed=0:02:05.54    \nframe=  172 fps=1.4 q=61.0 size=       1KiB time=00:00:01.42 bitrate=   3.1kbits/s speed=0.0113x elapsed=0:02:06.05    \nframe=  173 fps=1.4 q=54.0 size=       1KiB time=00:00:01.43 bitrate=   3.1kbits/s speed=0.0113x elapsed=0:02:06.57    \nframe=  175 fps=1.4 q=57.0 size=       1KiB time=00:00:01.45 bitrate=   3.1kbits/s speed=0.0114x elapsed=0:02:07.09    \nframe=  177 fps=1.4 q=42.0 size=       1KiB time=00:00:01.46 bitrate=   3.1kbits/s speed=0.0115x elapsed=0:02:07.62    \nframe=  178 fps=1.4 q=61.0 size=       1KiB time=00:00:01.47 bitrate=   3.0kbits/s speed=0.0115x elapsed=0:02:08.13    \nframe=  179 fps=1.4 q=59.0 size=       1KiB time=00:00:01.48 bitrate=   3.0kbits/s speed=0.0115x elapsed=0:02:08.64    \nframe=  181 fps=1.4 q=57.0 size=       1KiB time=00:00:01.50 bitrate=   3.0kbits/s speed=0.0116x elapsed=0:02:09.15    \nframe=  182 fps=1.4 q=61.0 size=       1KiB time=00:00:01.50 bitrate=   3.0kbits/s speed=0.0116x elapsed=0:02:09.68    \nframe=  182 fps=1.4 q=61.0 size=       1KiB time=00:00:01.50 bitrate=   3.0kbits/s speed=0.0116x elapsed=0:02:10.20    \nframe=  184 fps=1.4 q=61.0 size=       1KiB time=00:00:01.52 bitrate=   2.9kbits/s speed=0.0117x elapsed=0:02:10.70    \nframe=  186 fps=1.4 q=61.0 size=       1KiB time=00:00:01.54 bitrate=   2.9kbits/s speed=0.0117x elapsed=0:02:11.23    \nframe=  188 fps=1.4 q=62.0 size=       1KiB time=00:00:01.55 bitrate=   2.9kbits/s speed=0.0118x elapsed=0:02:11.74    \nframe=  189 fps=1.4 q=55.0 size=       1KiB time=00:00:01.56 bitrate=   2.9kbits/s speed=0.0118x elapsed=0:02:12.26    \nframe=  191 fps=1.4 q=58.0 size=       1KiB time=00:00:01.58 bitrate=   2.8kbits/s speed=0.0119x elapsed=0:02:12.77    \nframe=  192 fps=1.4 q=62.0 size=       1KiB time=00:00:01.59 bitrate=   2.8kbits/s speed=0.0119x elapsed=0:02:13.28    \nframe=  194 fps=1.4 q=61.0 size=       1KiB time=00:00:01.60 bitrate=   2.8kbits/s speed=0.012x elapsed=0:02:13.79    \nframe=  195 fps=1.5 q=60.0 size=       1KiB time=00:00:01.61 bitrate=   2.8kbits/s speed=0.012x elapsed=0:02:14.31    \nframe=  197 fps=1.5 q=58.0 size=       1KiB time=00:00:01.63 bitrate=   2.7kbits/s speed=0.0121x elapsed=0:02:14.83    \nframe=  197 fps=1.5 q=58.0 size=       1KiB time=00:00:01.63 bitrate=   2.7kbits/s speed=0.0121x elapsed=0:02:15.34    \nframe=  198 fps=1.5 q=62.0 size=       1KiB time=00:00:01.64 bitrate=   2.7kbits/s speed=0.0121x elapsed=0:02:15.87    \nframe=  199 fps=1.5 q=57.0 size=       1KiB time=00:00:01.65 bitrate=   2.7kbits/s speed=0.0121x elapsed=0:02:16.38    \nframe=  202 fps=1.5 q=62.0 size=       1KiB time=00:00:01.67 bitrate=   2.7kbits/s speed=0.0122x elapsed=0:02:16.90    \nframe=  202 fps=1.5 q=62.0 size=       1KiB time=00:00:01.67 bitrate=   2.7kbits/s speed=0.0122x elapsed=0:02:17.41    \nframe=  203 fps=1.5 q=59.0 size=       1KiB time=00:00:01.68 bitrate=   2.7kbits/s speed=0.0122x elapsed=0:02:17.92    \nframe=  204 fps=1.5 q=62.0 size=       1KiB time=00:00:01.69 bitrate=   2.6kbits/s speed=0.0122x elapsed=0:02:18.44    \nframe=  207 fps=1.5 q=59.0 size=       1KiB time=00:00:01.71 bitrate=   2.6kbits/s speed=0.0124x elapsed=0:02:18.95    \nframe=  207 fps=1.5 q=59.0 size=       1KiB time=00:00:01.71 bitrate=   2.6kbits/s speed=0.0123x elapsed=0:02:19.47    \nframe=  210 fps=1.5 q=62.0 size=       1KiB time=00:00:01.74 bitrate=   2.6kbits/s speed=0.0124x elapsed=0:02:19.99    \nframe=  210 fps=1.5 q=62.0 size=       1KiB time=00:00:01.74 bitrate=   2.6kbits/s speed=0.0124x elapsed=0:02:20.50    \nframe=  213 fps=1.5 q=59.0 size=       1KiB time=00:00:01.76 bitrate=   2.5kbits/s speed=0.0125x elapsed=0:02:21.01    \nframe=  213 fps=1.5 q=59.0 size=       1KiB time=00:00:01.76 bitrate=   2.5kbits/s speed=0.0125x elapsed=0:02:21.54    \nframe=  214 fps=1.5 q=60.0 size=       1KiB time=00:00:01.77 bitrate=   2.5kbits/s speed=0.0125x elapsed=0:02:22.06    \nframe=  218 fps=1.5 q=61.0 size=       1KiB time=00:00:01.80 bitrate=   2.5kbits/s speed=0.0127x elapsed=0:02:22.57    \nframe=  219 fps=1.5 q=60.0 size=       1KiB time=00:00:01.81 bitrate=   2.5kbits/s speed=0.0127x elapsed=0:02:23.09    \nframe=  221 fps=1.5 q=57.0 size=       1KiB time=00:00:01.83 bitrate=   2.4kbits/s speed=0.0128x elapsed=0:02:23.60    \nframe=  222 fps=1.5 q=62.0 size=       1KiB time=00:00:01.84 bitrate=   2.4kbits/s speed=0.0128x elapsed=0:02:24.11    \nframe=  222 fps=1.5 q=62.0 size=       1KiB time=00:00:01.84 bitrate=   2.4kbits/s speed=0.0127x elapsed=0:02:24.63    \nframe=  224 fps=1.5 q=62.0 size=       1KiB time=00:00:01.85 bitrate=   2.4kbits/s speed=0.0128x elapsed=0:02:25.14    \nframe=  225 fps=1.5 q=47.0 size=       1KiB time=00:00:01.86 bitrate=   2.4kbits/s speed=0.0128x elapsed=0:02:25.67    \nframe=  226 fps=1.5 q=62.0 size=       1KiB time=00:00:01.87 bitrate=   2.4kbits/s speed=0.0128x elapsed=0:02:26.18    \nframe=  227 fps=1.5 q=61.0 size=       1KiB time=00:00:01.88 bitrate=   2.4kbits/s speed=0.0128x elapsed=0:02:26.71    \nframe=  229 fps=1.6 q=59.0 size=       1KiB time=00:00:01.90 bitrate=   2.4kbits/s speed=0.0129x elapsed=0:02:27.23    \nframe=  229 fps=1.5 q=59.0 size=       1KiB time=00:00:01.90 bitrate=   2.4kbits/s speed=0.0129x elapsed=0:02:27.75    \nframe=  229 fps=1.5 q=59.0 size=       1KiB time=00:00:01.90 bitrate=   2.4kbits/s speed=0.0128x elapsed=0:02:28.27    \nframe=  230 fps=1.5 q=62.0 size=       1KiB time=00:00:01.90 bitrate=   2.3kbits/s speed=0.0128x elapsed=0:02:28.79    \nframe=  232 fps=1.6 q=62.0 size=       1KiB time=00:00:01.92 bitrate=   2.3kbits/s speed=0.0129x elapsed=0:02:29.30    \nframe=  234 fps=1.6 q=62.0 size=       1KiB time=00:00:01.94 bitrate=   2.3kbits/s speed=0.013x elapsed=0:02:29.81    \nframe=  235 fps=1.6 q=59.0 size=       1KiB time=00:00:01.95 bitrate=   2.3kbits/s speed=0.013x elapsed=0:02:30.34    \nframe=  237 fps=1.6 q=56.0 size=       1KiB time=00:00:01.96 bitrate=   2.3kbits/s speed=0.013x elapsed=0:02:30.84    \nframe=  239 fps=1.6 q=59.0 size=       1KiB time=00:00:01.98 bitrate=   2.3kbits/s speed=0.0131x elapsed=0:02:31.36    \nframe=  242 fps=1.6 q=62.0 size=       1KiB time=00:00:02.00 bitrate=   2.2kbits/s speed=0.0132x elapsed=0:02:31.87    \nframe=  242 fps=1.6 q=62.0 size=       1KiB time=00:00:02.00 bitrate=   2.2kbits/s speed=0.0132x elapsed=0:02:32.39    \nframe=  244 fps=1.6 q=62.0 size=       1KiB time=00:00:02.02 bitrate=   2.2kbits/s speed=0.0132x elapsed=0:02:32.91    \nframe=  245 fps=1.6 q=59.0 size=       1KiB time=00:00:02.03 bitrate=   2.2kbits/s speed=0.0133x elapsed=0:02:33.42    \nframe=  245 fps=1.6 q=59.0 size=       1KiB time=00:00:02.03 bitrate=   2.2kbits/s speed=0.0132x elapsed=0:02:33.94    \nframe=  246 fps=1.6 q=61.0 size=       1KiB time=00:00:02.04 bitrate=   2.2kbits/s speed=0.0132x elapsed=0:02:34.45    \nframe=  247 fps=1.6 q=58.0 size=       1KiB time=00:00:02.05 bitrate=   2.2kbits/s speed=0.0132x elapsed=0:02:34.97    \nframe=  249 fps=1.6 q=56.0 size=       1KiB time=00:00:02.06 bitrate=   2.2kbits/s speed=0.0133x elapsed=0:02:35.48    \nframe=  250 fps=1.6 q=62.0 size=       1KiB time=00:00:02.07 bitrate=   2.2kbits/s speed=0.0133x elapsed=0:02:36.00    \nframe=  251 fps=1.6 q=60.0 size=       1KiB time=00:00:02.08 bitrate=   2.2kbits/s speed=0.0133x elapsed=0:02:36.52    \nframe=  253 fps=1.6 q=57.0 size=       1KiB time=00:00:02.10 bitrate=   2.1kbits/s speed=0.0134x elapsed=0:02:37.04    \nframe=  255 fps=1.6 q=60.0 size=       1KiB time=00:00:02.11 bitrate=   2.1kbits/s speed=0.0134x elapsed=0:02:37.54    \nframe=  258 fps=1.6 q=63.0 size=       1KiB time=00:00:02.14 bitrate=   2.1kbits/s speed=0.0135x elapsed=0:02:38.06    \nframe=  261 fps=1.6 q=60.0 size=       1KiB time=00:00:02.16 bitrate=   2.1kbits/s speed=0.0137x elapsed=0:02:38.58    \nframe=  262 fps=1.6 q=63.0 size=       1KiB time=00:00:02.17 bitrate=   2.1kbits/s speed=0.0137x elapsed=0:02:39.09    \nframe=  265 fps=1.7 q=56.0 size=       1KiB time=00:00:02.20 bitrate=   2.0kbits/s speed=0.0138x elapsed=0:02:39.61    \nframe=  267 fps=1.7 q=60.0 size=       1KiB time=00:00:02.21 bitrate=   2.0kbits/s speed=0.0138x elapsed=0:02:40.12    \nframe=  270 fps=1.7 q=63.0 size=       1KiB time=00:00:02.23 bitrate=   2.0kbits/s speed=0.0139x elapsed=0:02:40.82    \nframe=  272 fps=1.7 q=63.0 size=       1KiB time=00:00:02.25 bitrate=   2.0kbits/s speed=0.014x elapsed=0:02:41.50    \nframe=  273 fps=1.7 q=49.0 size=       1KiB time=00:00:02.26 bitrate=   2.0kbits/s speed=0.014x elapsed=0:02:42.01    \nframe=  275 fps=1.7 q=62.0 size=       1KiB time=00:00:02.28 bitrate=   2.0kbits/s speed=0.014x elapsed=0:02:42.54    \nframe=  277 fps=1.7 q=60.0 size=       1KiB time=00:00:02.30 bitrate=   1.9kbits/s speed=0.0141x elapsed=0:02:43.05    \nframe=  278 fps=1.7 q=63.0 size=       1KiB time=00:00:02.30 bitrate=   1.9kbits/s speed=0.0141x elapsed=0:02:43.56    \nframe=  279 fps=1.7 q=62.0 size=       1KiB time=00:00:02.31 bitrate=   1.9kbits/s speed=0.0141x elapsed=0:02:44.09    \nframe=  282 fps=1.7 q=62.0 size=       1KiB time=00:00:02.34 bitrate=   1.9kbits/s speed=0.0142x elapsed=0:02:44.59    \nframe=  284 fps=1.7 q=63.0 size=       1KiB time=00:00:02.35 bitrate=   1.9kbits/s speed=0.0143x elapsed=0:02:45.12    \nframe=  286 fps=1.7 q=63.0 size=       1KiB time=00:00:02.37 bitrate=   1.9kbits/s speed=0.0143x elapsed=0:02:45.62    \nframe=  290 fps=1.7 q=63.0 size=       1KiB time=00:00:02.40 bitrate=   1.9kbits/s speed=0.0145x elapsed=0:02:46.14    \nframe=  293 fps=1.8 q=60.0 size=       1KiB time=00:00:02.43 bitrate=   1.8kbits/s speed=0.0146x elapsed=0:02:46.65    \nframe=  293 fps=1.8 q=60.0 size=       1KiB time=00:00:02.43 bitrate=   1.8kbits/s speed=0.0146x elapsed=0:02:47.17    \nframe=  294 fps=1.8 q=63.0 size=       1KiB time=00:00:02.44 bitrate=   1.8kbits/s speed=0.0146x elapsed=0:02:47.69    \nframe=  294 fps=1.7 q=63.0 size=       1KiB time=00:00:02.44 bitrate=   1.8kbits/s speed=0.0145x elapsed=0:02:48.21    \nframe=  296 fps=1.8 q=63.0 size=       1KiB time=00:00:02.45 bitrate=   1.8kbits/s speed=0.0146x elapsed=0:02:48.74    \nframe=  297 fps=1.8 q=57.0 size=       1KiB time=00:00:02.46 bitrate=   1.8kbits/s speed=0.0146x elapsed=0:02:49.28    \nframe=  298 fps=1.8 q=62.0 size=       1KiB time=00:00:02.47 bitrate=   1.8kbits/s speed=0.0146x elapsed=0:02:49.86    \nframe=  299 fps=1.8 q=61.0 size=       1KiB time=00:00:02.48 bitrate=   1.8kbits/s speed=0.0146x elapsed=0:02:50.38    \nframe=  303 fps=1.8 q=61.0 size=       1KiB time=00:00:02.51 bitrate=   1.8kbits/s speed=0.0147x elapsed=0:02:50.90    \nframe=  305 fps=1.8 q=51.0 size=       1KiB time=00:00:02.53 bitrate=   1.8kbits/s speed=0.0148x elapsed=0:02:51.43    \nframe=  307 fps=1.8 q=63.0 size=       1KiB time=00:00:02.55 bitrate=   1.8kbits/s speed=0.0148x elapsed=0:02:51.95    \nframe=  309 fps=1.8 q=61.0 size=       1KiB time=00:00:02.56 bitrate=   1.7kbits/s speed=0.0149x elapsed=0:02:52.45    \nframe=  310 fps=1.8 q=63.0 size=       1KiB time=00:00:02.57 bitrate=   1.7kbits/s speed=0.0149x elapsed=0:02:52.98    \nframe=  312 fps=1.8 q=63.0 size=       1KiB time=00:00:02.59 bitrate=   1.7kbits/s speed=0.0149x elapsed=0:02:53.50    \nframe=  314 fps=1.8 q=63.0 size=       1KiB time=00:00:02.60 bitrate=   1.7kbits/s speed=0.015x elapsed=0:02:54.02    \nframe=  318 fps=1.8 q=62.0 size=       1KiB time=00:00:02.63 bitrate=   1.7kbits/s speed=0.0151x elapsed=0:02:54.56    \nframe=  319 fps=1.8 q=61.0 size=       1KiB time=00:00:02.65 bitrate=   1.7kbits/s speed=0.0151x elapsed=0:02:55.09    \nframe=  321 fps=1.8 q=51.0 size=       1KiB time=00:00:02.66 bitrate=   1.7kbits/s speed=0.0152x elapsed=0:02:55.70    \nframe=  323 fps=1.8 q=62.0 size=       1KiB time=00:00:02.68 bitrate=   1.7kbits/s speed=0.0152x elapsed=0:02:56.22    \nframe=  325 fps=1.8 q=61.0 size=       1KiB time=00:00:02.70 bitrate=   1.7kbits/s speed=0.0153x elapsed=0:02:56.74    \nframe=  325 fps=1.8 q=61.0 size=       1KiB time=00:00:02.70 bitrate=   1.7kbits/s speed=0.0152x elapsed=0:02:57.26    \nframe=  326 fps=1.8 q=63.0 size=       1KiB time=00:00:02.70 bitrate=   1.7kbits/s speed=0.0152x elapsed=0:02:57.79    \nframe=  326 fps=1.8 q=63.0 size=       1KiB time=00:00:02.70 bitrate=   1.7kbits/s speed=0.0152x elapsed=0:02:58.31    \nframe=  329 fps=1.8 q=58.0 size=       1KiB time=00:00:02.73 bitrate=   1.6kbits/s speed=0.0153x elapsed=0:02:58.85    \nframe=  331 fps=1.8 q=61.0 size=       1KiB time=00:00:02.75 bitrate=   1.6kbits/s speed=0.0153x elapsed=0:02:59.38    \nframe=  333 fps=1.9 q=58.0 size=       1KiB time=00:00:02.76 bitrate=   1.6kbits/s speed=0.0154x elapsed=0:02:59.90    \nframe=  338 fps=1.9 q=63.0 size=       1KiB time=00:00:02.80 bitrate=   1.6kbits/s speed=0.0156x elapsed=0:03:00.42    \nframe=  338 fps=1.9 q=63.0 size=       1KiB time=00:00:02.80 bitrate=   1.6kbits/s speed=0.0155x elapsed=0:03:00.99    \nframe=  341 fps=1.9 q=61.0 size=       1KiB time=00:00:02.83 bitrate=   1.6kbits/s speed=0.0156x elapsed=0:03:01.52    \nframe=  342 fps=1.9 q=63.0 size=       1KiB time=00:00:02.84 bitrate=   1.6kbits/s speed=0.0156x elapsed=0:03:02.03    \nframe=  343 fps=1.9 q=59.0 size=       1KiB time=00:00:02.85 bitrate=   1.6kbits/s speed=0.0156x elapsed=0:03:02.55    \nframe=  345 fps=1.9 q=57.0 size=       1KiB time=00:00:02.86 bitrate=   1.6kbits/s speed=0.0157x elapsed=0:03:03.10    \nframe=  346 fps=1.9 q=63.0 size=       1KiB time=00:00:02.87 bitrate=   1.6kbits/s speed=0.0157x elapsed=0:03:03.61    \nframe=  348 fps=1.9 q=63.0 size=       1KiB time=00:00:02.89 bitrate=   1.5kbits/s speed=0.0157x elapsed=0:03:04.13    \nframe=  351 fps=1.9 q=61.0 size=       1KiB time=00:00:02.91 bitrate=   1.5kbits/s speed=0.0158x elapsed=0:03:04.65    \nframe=  354 fps=1.9 q=63.0 size=       1KiB time=00:00:02.94 bitrate=   1.5kbits/s speed=0.0159x elapsed=0:03:05.17    \nframe=  357 fps=1.9 q=61.0 size=       1KiB time=00:00:02.96 bitrate=   1.5kbits/s speed=0.016x elapsed=0:03:05.68    \nframe=  358 fps=1.9 q=63.0 size=       1KiB time=00:00:02.97 bitrate=   1.5kbits/s speed=0.016x elapsed=0:03:06.20    \nframe=  359 fps=1.9 q=63.0 size=       1KiB time=00:00:02.98 bitrate=   1.5kbits/s speed=0.016x elapsed=0:03:06.77    \nframe=  360 fps=1.9 q=63.0 size=       1KiB time=00:00:02.99 bitrate=   1.5kbits/s speed=0.016x elapsed=0:03:07.28    \nframe=  362 fps=1.9 q=63.0 size=       1KiB time=00:00:03.00 bitrate=   1.5kbits/s speed=0.016x elapsed=0:03:07.80    \nframe=  364 fps=1.9 q=63.0 size=       1KiB time=00:00:03.01 bitrate=   1.5kbits/s speed=0.016x elapsed=0:03:08.35    \nframe=  364 fps=1.9 q=63.0 size=       1KiB time=00:00:03.02 bitrate=   1.5kbits/s speed=0.016x elapsed=0:03:08.91    \nframe=  367 fps=1.9 q=62.0 size=       1KiB time=00:00:03.05 bitrate=   1.5kbits/s speed=0.0161x elapsed=0:03:09.42    \nframe=  368 fps=1.9 q=63.0 size=       1KiB time=00:00:03.05 bitrate=   1.5kbits/s speed=0.0161x elapsed=0:03:09.94    \nframe=  369 fps=1.9 q=52.0 size=       1KiB time=00:00:03.06 bitrate=   1.5kbits/s speed=0.0161x elapsed=0:03:10.45    \nframe=  370 fps=1.9 q=63.0 size=       1KiB time=00:00:03.07 bitrate=   1.5kbits/s speed=0.0161x elapsed=0:03:10.99    \nframe=  370 fps=1.9 q=63.0 size=       1KiB time=00:00:03.07 bitrate=   1.5kbits/s speed=0.0161x elapsed=0:03:11.53    \nframe=  373 fps=1.9 q=62.0 size=       1KiB time=00:00:03.10 bitrate=   1.4kbits/s speed=0.0161x elapsed=0:03:12.05    \nframe=  373 fps=1.9 q=62.0 size=       1KiB time=00:00:03.10 bitrate=   1.4kbits/s speed=0.0161x elapsed=0:03:12.58    \nframe=  374 fps=1.9 q=62.0 size=       1KiB time=00:00:03.10 bitrate=   1.4kbits/s speed=0.0161x elapsed=0:03:13.10    \nframe=  375 fps=1.9 q=59.0 size=       1KiB time=00:00:03.11 bitrate=   1.4kbits/s speed=0.0161x elapsed=0:03:13.62    \nframe=  378 fps=1.9 q=63.0 size=       1KiB time=00:00:03.14 bitrate=   1.4kbits/s speed=0.0162x elapsed=0:03:14.14    \nframe=  380 fps=2.0 q=63.0 size=       1KiB time=00:00:03.15 bitrate=   1.4kbits/s speed=0.0162x elapsed=0:03:14.67    \nframe=  383 fps=2.0 q=62.0 size=       1KiB time=00:00:03.18 bitrate=   1.4kbits/s speed=0.0163x elapsed=0:03:15.19    \nframe=  384 fps=2.0 q=63.0 size=       1KiB time=00:00:03.19 bitrate=   1.4kbits/s speed=0.0163x elapsed=0:03:15.70    \nframe=  386 fps=2.0 q=63.0 size=       1KiB time=00:00:03.20 bitrate=   1.4kbits/s speed=0.0164x elapsed=0:03:16.22    \nframe=  388 fps=2.0 q=63.0 size=       1KiB time=00:00:03.22 bitrate=   1.4kbits/s speed=0.0164x elapsed=0:03:16.74    \nframe=  389 fps=2.0 q=61.0 size=       1KiB time=00:00:03.23 bitrate=   1.4kbits/s speed=0.0164x elapsed=0:03:17.30    \nframe=  390 fps=2.0 q=63.0 size=       1KiB time=00:00:03.24 bitrate=   1.4kbits/s speed=0.0164x elapsed=0:03:17.81    \nframe=  392 fps=2.0 q=63.0 size=       1KiB time=00:00:03.25 bitrate=   1.4kbits/s speed=0.0164x elapsed=0:03:18.32    \nframe=  394 fps=2.0 q=62.0 size=       1KiB time=00:00:03.27 bitrate=   1.4kbits/s speed=0.0165x elapsed=0:03:18.85    \nframe=  395 fps=2.0 q=61.0 size=       1KiB time=00:00:03.28 bitrate=   1.4kbits/s speed=0.0165x elapsed=0:03:19.38    \nframe=  399 fps=2.0 q=61.0 size=       1KiB time=00:00:03.31 bitrate=   1.4kbits/s speed=0.0166x elapsed=0:03:19.89    \nframe=  402 fps=2.0 q=63.0 size=       1KiB time=00:00:03.33 bitrate=   1.3kbits/s speed=0.0166x elapsed=0:03:20.41    \nframe=  402 fps=2.0 q=63.0 size=       1KiB time=00:00:03.34 bitrate=   1.3kbits/s speed=0.0166x elapsed=0:03:20.96    \nframe=  403 fps=2.0 q=62.0 size=       1KiB time=00:00:03.35 bitrate=   1.3kbits/s speed=0.0166x elapsed=0:03:21.47    \nframe=  404 fps=2.0 q=63.0 size=       1KiB time=00:00:03.35 bitrate=   1.3kbits/s speed=0.0166x elapsed=0:03:21.99    \nframe=  405 fps=2.0 q=61.0 size=       1KiB time=00:00:03.36 bitrate=   1.3kbits/s speed=0.0166x elapsed=0:03:22.51    \nframe=  406 fps=2.0 q=62.0 size=       1KiB time=00:00:03.37 bitrate=   1.3kbits/s speed=0.0166x elapsed=0:03:23.03    \nframe=  406 fps=2.0 q=62.0 size=       1KiB time=00:00:03.37 bitrate=   1.3kbits/s speed=0.0166x elapsed=0:03:23.55    \nframe=  407 fps=2.0 q=59.0 size=       1KiB time=00:00:03.37 bitrate=   1.3kbits/s speed=0.0165x elapsed=0:03:24.06    \nframe=  410 fps=2.0 q=62.0 size=       1KiB time=00:00:03.40 bitrate=   1.3kbits/s speed=0.0167x elapsed=0:03:24.64    \nframe=  410 fps=2.0 q=62.0 size=       1KiB time=00:00:03.40 bitrate=   1.3kbits/s speed=0.0166x elapsed=0:03:25.18    \nframe=  411 fps=2.0 q=61.0 size=       1KiB time=00:00:03.41 bitrate=   1.3kbits/s speed=0.0166x elapsed=0:03:25.85    \nframe=  413 fps=2.0 q=58.0 size=       1KiB time=00:00:03.42 bitrate=   1.3kbits/s speed=0.0166x elapsed=0:03:26.39    \nframe=  415 fps=2.0 q=60.0 size=       1KiB time=00:00:03.45 bitrate=   1.3kbits/s speed=0.0167x elapsed=0:03:26.98    \nframe=  416 fps=2.0 q=62.0 size=       1KiB time=00:00:03.45 bitrate=   1.3kbits/s speed=0.0167x elapsed=0:03:27.51    \nframe=  418 fps=2.0 q=63.0 size=       1KiB time=00:00:03.47 bitrate=   1.3kbits/s speed=0.0167x elapsed=0:03:28.03    \nframe=  421 fps=2.0 q=60.0 size=       1KiB time=00:00:03.50 bitrate=   1.3kbits/s speed=0.0168x elapsed=0:03:28.54    \nframe=  422 fps=2.0 q=63.0 size=       1KiB time=00:00:03.50 bitrate=   1.3kbits/s speed=0.0168x elapsed=0:03:29.06    \nframe=  423 fps=2.0 q=62.0 size=       1KiB time=00:00:03.51 bitrate=   1.3kbits/s speed=0.0168x elapsed=0:03:29.64    \nframe=  426 fps=2.0 q=63.0 size=       1KiB time=00:00:03.54 bitrate=   1.3kbits/s speed=0.0169x elapsed=0:03:30.18    \nframe=  426 fps=2.0 q=63.0 size=       1KiB time=00:00:03.54 bitrate=   1.3kbits/s speed=0.0168x elapsed=0:03:30.69    \nframe=  426 fps=2.0 q=63.0 size=       1KiB time=00:00:03.54 bitrate=   1.3kbits/s speed=0.0168x elapsed=0:03:31.21    \nframe=  428 fps=2.0 q=63.0 size=       1KiB time=00:00:03.55 bitrate=   1.3kbits/s speed=0.0168x elapsed=0:03:31.73    \nframe=  430 fps=2.0 q=62.0 size=       1KiB time=00:00:03.57 bitrate=   1.3kbits/s speed=0.0168x elapsed=0:03:32.25    \nframe=  433 fps=2.0 q=51.0 size=       1KiB time=00:00:03.60 bitrate=   1.2kbits/s speed=0.0169x elapsed=0:03:32.80    \nframe=  434 fps=2.0 q=63.0 size=       1KiB time=00:00:03.60 bitrate=   1.2kbits/s speed=0.0169x elapsed=0:03:33.35    \nframe=  434 fps=2.0 q=63.0 size=       1KiB time=00:00:03.60 bitrate=   1.2kbits/s speed=0.0169x elapsed=0:03:33.88    \nframe=  435 fps=2.0 q=62.0 size=       1KiB time=00:00:03.61 bitrate=   1.2kbits/s speed=0.0169x elapsed=0:03:34.39    \nframe=  437 fps=2.0 q=60.0 size=       1KiB time=00:00:03.63 bitrate=   1.2kbits/s speed=0.0169x elapsed=0:03:34.97    \nframe=  437 fps=2.0 q=60.0 size=       1KiB time=00:00:03.63 bitrate=   1.2kbits/s speed=0.0169x elapsed=0:03:35.52    \nframe=  438 fps=2.0 q=61.0 size=       1KiB time=00:00:03.64 bitrate=   1.2kbits/s speed=0.0169x elapsed=0:03:36.04    \nframe=  438 fps=2.0 q=61.0 size=       1KiB time=00:00:03.64 bitrate=   1.2kbits/s speed=0.0168x elapsed=0:03:36.56    \nframe=  440 fps=2.0 q=63.0 size=       1KiB time=00:00:03.65 bitrate=   1.2kbits/s speed=0.0168x elapsed=0:03:37.08    \nframe=  441 fps=2.0 q=57.0 size=       1KiB time=00:00:03.66 bitrate=   1.2kbits/s speed=0.0168x elapsed=0:03:37.63    \nframe=  442 fps=2.0 q=63.0 size=       1KiB time=00:00:03.67 bitrate=   1.2kbits/s speed=0.0168x elapsed=0:03:38.16    \nframe=  445 fps=2.0 q=57.0 size=       1KiB time=00:00:03.69 bitrate=   1.2kbits/s speed=0.0169x elapsed=0:03:38.74    \nframe=  446 fps=2.0 q=62.0 size=       1KiB time=00:00:03.70 bitrate=   1.2kbits/s speed=0.0169x elapsed=0:03:39.36    \nframe=  448 fps=2.0 q=62.0 size=       1KiB time=00:00:03.71 bitrate=   1.2kbits/s speed=0.0169x elapsed=0:03:39.93    \nframe=  450 fps=2.0 q=63.0 size=       1KiB time=00:00:03.74 bitrate=   1.2kbits/s speed=0.017x elapsed=0:03:40.56    \nframe=  453 fps=2.0 q=60.0 size=       1KiB time=00:00:03.76 bitrate=   1.2kbits/s speed=0.017x elapsed=0:03:41.11    \nframe=  454 fps=2.0 q=63.0 size=       1KiB time=00:00:03.77 bitrate=   1.2kbits/s speed=0.017x elapsed=0:03:41.66    \nframe=  456 fps=2.1 q=63.0 size=       1KiB time=00:00:03.79 bitrate=   1.2kbits/s speed=0.0171x elapsed=0:03:42.21    \nframe=  458 fps=2.1 q=62.0 size=       1KiB time=00:00:03.80 bitrate=   1.2kbits/s speed=0.0171x elapsed=0:03:42.79    \nframe=  459 fps=2.1 q=60.0 size=       1KiB time=00:00:03.81 bitrate=   1.2kbits/s speed=0.0171x elapsed=0:03:43.33    \nframe=  460 fps=2.1 q=62.0 size=       1KiB time=00:00:03.82 bitrate=   1.2kbits/s speed=0.0171x elapsed=0:03:43.93    \nframe=  463 fps=2.1 q=60.0 size=       1KiB time=00:00:03.85 bitrate=   1.2kbits/s speed=0.0172x elapsed=0:03:44.47    \nframe=  466 fps=2.1 q=63.0 size=       1KiB time=00:00:03.86 bitrate=   1.2kbits/s speed=0.0172x elapsed=0:03:45.01    \nframe=  467 fps=2.1 q=62.0 size=       1KiB time=00:00:03.88 bitrate=   1.2kbits/s speed=0.0172x elapsed=0:03:45.65    \nframe=  469 fps=2.1 q=60.0 size=       1KiB time=00:00:03.90 bitrate=   1.1kbits/s speed=0.0172x elapsed=0:03:46.26    \nframe=  470 fps=2.1 q=63.0 size=       1KiB time=00:00:03.90 bitrate=   1.1kbits/s speed=0.0172x elapsed=0:03:46.86    \nframe=  471 fps=2.1 q=62.0 size=       1KiB time=00:00:03.91 bitrate=   1.1kbits/s speed=0.0172x elapsed=0:03:47.52    \nframe=  474 fps=2.1 q=62.0 size=       1KiB time=00:00:03.94 bitrate=   1.1kbits/s speed=0.0173x elapsed=0:03:48.04    \nframe=  476 fps=2.1 q=62.0 size=       1KiB time=00:00:03.95 bitrate=   1.1kbits/s speed=0.0173x elapsed=0:03:48.57    \nframe=  479 fps=2.1 q=60.0 size=       1KiB time=00:00:03.97 bitrate=   1.1kbits/s speed=0.0173x elapsed=0:03:49.18    \nframe=  481 fps=2.1 q=49.0 size=       1KiB time=00:00:04.00 bitrate=   1.1kbits/s speed=0.0174x elapsed=0:03:49.81    \nframe=  483 fps=2.1 q=62.0 size=       1KiB time=00:00:04.01 bitrate=   1.1kbits/s speed=0.0174x elapsed=0:03:50.32    \nframe=  485 fps=2.1 q=60.0 size=       1KiB time=00:00:04.03 bitrate=   1.1kbits/s speed=0.0175x elapsed=0:03:50.91    \nframe=  486 fps=2.1 q=62.0 size=       1KiB time=00:00:04.04 bitrate=   1.1kbits/s speed=0.0175x elapsed=0:03:51.45    \nframe=  487 fps=2.1 q=58.0 size=       1KiB time=00:00:04.05 bitrate=   1.1kbits/s speed=0.0175x elapsed=0:03:52.08    \nframe=  490 fps=2.1 q=62.0 size=       1KiB time=00:00:04.07 bitrate=   1.1kbits/s speed=0.0175x elapsed=0:03:52.61    \nframe=  492 fps=2.1 q=62.0 size=       1KiB time=00:00:04.09 bitrate=   1.1kbits/s speed=0.0176x elapsed=0:03:53.13    \nframe=  495 fps=2.1 q=60.0 size=       1KiB time=00:00:04.11 bitrate=   1.1kbits/s speed=0.0176x elapsed=0:03:53.64    \nframe=  500 fps=2.1 q=63.0 size=       1KiB time=00:00:04.15 bitrate=   1.1kbits/s speed=0.0178x elapsed=0:03:54.16    \nframe=  501 fps=2.1 q=60.0 size=       1KiB time=00:00:04.16 bitrate=   1.1kbits/s speed=0.0178x elapsed=0:03:54.69    \nframe=  501 fps=2.1 q=60.0 size=       1KiB time=00:00:04.16 bitrate=   1.1kbits/s speed=0.0177x elapsed=0:03:55.22    \nframe=  505 fps=2.1 q=56.0 size=       1KiB time=00:00:04.20 bitrate=   1.1kbits/s speed=0.0178x elapsed=0:03:55.73    \nframe=  507 fps=2.1 q=60.0 size=       1KiB time=00:00:04.21 bitrate=   1.1kbits/s speed=0.0178x elapsed=0:03:56.31    \nframe=  509 fps=2.1 q=57.0 size=       1KiB time=00:00:04.23 bitrate=   1.1kbits/s speed=0.0179x elapsed=0:03:56.83    \nframe=  509 fps=2.1 q=57.0 size=       1KiB time=00:00:04.23 bitrate=   1.1kbits/s speed=0.0178x elapsed=0:03:57.34    \nframe=  513 fps=2.2 q=49.0 size=       1KiB time=00:00:04.26 bitrate=   1.0kbits/s speed=0.0179x elapsed=0:03:57.88    \nframe=  515 fps=2.2 q=62.0 size=       1KiB time=00:00:04.28 bitrate=   1.0kbits/s speed=0.018x elapsed=0:03:58.47    \nframe=  517 fps=2.2 q=60.0 size=       1KiB time=00:00:04.30 bitrate=   1.0kbits/s speed=0.018x elapsed=0:03:59.08    \nframe=  519 fps=2.2 q=59.0 size=       1KiB time=00:00:04.31 bitrate=   1.0kbits/s speed=0.018x elapsed=0:03:59.71    \nframe=  521 fps=2.2 q=56.0 size=       1KiB time=00:00:04.33 bitrate=   1.0kbits/s speed=0.018x elapsed=0:04:00.23    \nframe=  521 fps=2.2 q=56.0 size=       1KiB time=00:00:04.33 bitrate=   1.0kbits/s speed=0.018x elapsed=0:04:00.73    \nframe=  523 fps=2.2 q=61.0 size=       1KiB time=00:00:04.35 bitrate=   1.0kbits/s speed=0.018x elapsed=0:04:01.25    \nframe=  525 fps=2.2 q=58.0 size=       1KiB time=00:00:04.36 bitrate=   1.0kbits/s speed=0.0181x elapsed=0:04:01.77    \nframe=  525 fps=2.2 q=58.0 size=       1KiB time=00:00:04.36 bitrate=   1.0kbits/s speed=0.018x elapsed=0:04:02.28    \nframe=  529 fps=2.2 q=49.0 size=       1KiB time=00:00:04.40 bitrate=   1.0kbits/s speed=0.0181x elapsed=0:04:02.80    \nframe=  531 fps=2.2 q=62.0 size=       1KiB time=00:00:04.41 bitrate=   1.0kbits/s speed=0.0182x elapsed=0:04:03.31    \nframe=  535 fps=2.2 q=58.0 size=       1KiB time=00:00:04.45 bitrate=   1.0kbits/s speed=0.0182x elapsed=0:04:03.83    \nframe=  537 fps=2.2 q=57.0 size=       1KiB time=00:00:04.46 bitrate=   1.0kbits/s speed=0.0183x elapsed=0:04:04.35    \nframe=  539 fps=2.2 q=60.0 size=       1KiB time=00:00:04.48 bitrate=   1.0kbits/s speed=0.0183x elapsed=0:04:04.86    \nframe=  543 fps=2.2 q=60.0 size=       1KiB time=00:00:04.51 bitrate=   1.0kbits/s speed=0.0184x elapsed=0:04:05.38    \nframe=  547 fps=2.2 q=62.0 size=       1KiB time=00:00:04.55 bitrate=   1.0kbits/s speed=0.0185x elapsed=0:04:05.90    \nframe=  553 fps=2.2 q=56.0 size=       1KiB time=00:00:04.60 bitrate=   1.0kbits/s speed=0.0187x elapsed=0:04:06.41    \nframe=  553 fps=2.2 q=56.0 size=       1KiB time=00:00:04.60 bitrate=   1.0kbits/s speed=0.0186x elapsed=0:04:06.92    \nframe=  557 fps=2.3 q=57.0 size=       1KiB time=00:00:04.63 bitrate=   1.0kbits/s speed=0.0187x elapsed=0:04:07.44    \nframe=  559 fps=2.3 q=60.0 size=       1KiB time=00:00:04.65 bitrate=   1.0kbits/s speed=0.0188x elapsed=0:04:07.96    \nframe=  563 fps=2.3 q=61.0 size=       1KiB time=00:00:04.68 bitrate=   1.0kbits/s speed=0.0188x elapsed=0:04:08.47    \nframe=  565 fps=2.3 q=60.0 size=       1KiB time=00:00:04.70 bitrate=   1.0kbits/s speed=0.0189x elapsed=0:04:08.98    \nframe=  565 fps=2.3 q=60.0 size=       1KiB time=00:00:04.70 bitrate=   1.0kbits/s speed=0.0188x elapsed=0:04:09.51    \nframe=  569 fps=2.3 q=57.0 size=       1KiB time=00:00:04.73 bitrate=   0.9kbits/s speed=0.0189x elapsed=0:04:10.02    \nframe=  569 fps=2.3 q=57.0 size=       1KiB time=00:00:04.73 bitrate=   0.9kbits/s speed=0.0189x elapsed=0:04:10.53    \nframe=  573 fps=2.3 q=60.0 size=       1KiB time=00:00:04.76 bitrate=   0.9kbits/s speed=0.019x elapsed=0:04:11.05    \nframe=  573 fps=2.3 q=60.0 size=       1KiB time=00:00:04.76 bitrate=   0.9kbits/s speed=0.0189x elapsed=0:04:11.56    \nframe=  577 fps=2.3 q=51.0 size=       1KiB time=00:00:04.80 bitrate=   0.9kbits/s speed=0.019x elapsed=0:04:12.08    \nframe=  579 fps=2.3 q=61.0 size=       1KiB time=00:00:04.81 bitrate=   0.9kbits/s speed=0.0191x elapsed=0:04:12.60    \nframe=  581 fps=2.3 q=61.0 size=       1KiB time=00:00:04.83 bitrate=   0.9kbits/s speed=0.0191x elapsed=0:04:13.11    \nframe=  585 fps=2.3 q=60.0 size=       1KiB time=00:00:04.86 bitrate=   0.9kbits/s speed=0.0192x elapsed=0:04:13.63    \nframe=  585 fps=2.3 q=60.0 size=       1KiB time=00:00:04.86 bitrate=   0.9kbits/s speed=0.0191x elapsed=0:04:14.15    \nframe=  589 fps=2.3 q=61.0 size=       1KiB time=00:00:04.90 bitrate=   0.9kbits/s speed=0.0192x elapsed=0:04:14.66    \nframe=  591 fps=2.3 q=61.0 size=       1KiB time=00:00:04.91 bitrate=   0.9kbits/s speed=0.0193x elapsed=0:04:15.18    \n[out#0/matroska @ 000001e8c7e59940] video:1223KiB audio:0KiB subtitle:0KiB other streams:0KiB global headers:0KiB muxing overhead: 0.266593%\nframe=  600 fps=2.4 q=61.0 Lsize=    1226KiB time=00:00:04.99 bitrate=2012.7kbits/s speed=0.0196x elapsed=0:04:15.20    \n",
  "seconds": 257.54899501800537,
  "probe_out": {}
}